<svg width="20" height="20" viewBox="0 0 20 20" fill="none" xmlns="http://www.w3.org/2000/svg">
<path fill-rule="evenodd" clip-rule="evenodd" d="M0 3V14.5V15.25C0 17.0449 1.48027 18.5 3.27519 18.5C5.0425 18.5 6.5 17.0673 6.5 15.3C6.5 14.8582 6.85817 14.5 7.3 14.5H16V3C16 1.34315 14.6569 0 13 0H3C1.34315 0 0 1.34315 0 3ZM7.25 9.17183C7.20334 9.13675 7.15858 9.09798 7.11612 9.05551L5.53033 7.46973C5.23744 7.17684 4.76256 7.17684 4.46967 7.46973C4.17678 7.76262 4.17678 8.2375 4.46967 8.53039L6.05546 10.1162C7.1294 11.1901 8.8706 11.1901 9.94454 10.1162L11.5303 8.53039C11.8232 8.2375 11.8232 7.76262 11.5303 7.46973C11.2374 7.17684 10.7626 7.17684 10.4697 7.46973L8.88388 9.05552C8.84142 9.09798 8.79666 9.13675 8.75 9.17183V5.00006C8.75 4.58584 8.41421 4.25006 8 4.25006C7.58579 4.25006 7.25 4.58584 7.25 5.00006V9.17183ZM19.8766 16.9899C19.4361 18.7202 17.8675 20 16 20H4C5.86748 20 7.43606 18.7202 7.87657 16.9899C8.01283 16.4547 8.44772 16 9 16H19C19.5523 16 20.0128 16.4547 19.8766 16.9899Z" fill="white"/>
</svg>
