<svg width="22" height="18" viewBox="0 0 22 18" fill="none" xmlns="http://www.w3.org/2000/svg">
<path fill-rule="evenodd" clip-rule="evenodd" d="M17.5303 4.46967C17.2374 4.17678 16.7626 4.17678 16.4697 4.46967C16.1768 4.76257 16.1768 5.23744 16.4697 5.53033L19.1893 8.24996L7 8.24996C6.58578 8.24996 6.25 8.58575 6.25 8.99996C6.25 9.41418 6.58578 9.74996 7 9.74996L19.1893 9.74996L16.4697 12.4697C16.1768 12.7626 16.1768 13.2374 16.4697 13.5303C16.7626 13.8232 17.2374 13.8232 17.5303 13.5303L21.5303 9.53029C21.671 9.38964 21.75 9.19887 21.75 8.99996C21.75 8.80105 21.671 8.61028 21.5303 8.46963L17.5303 4.46967ZM13.5309 3.33981C13.8541 3.59889 14.3261 3.54692 14.5852 3.22373C14.8442 2.90054 14.7923 2.42852 14.4691 2.16944C12.9712 0.968714 11.0685 0.25 8.99998 0.249999C4.16748 0.249999 0.249977 4.16751 0.249977 9C0.249977 13.8325 4.16748 17.75 8.99998 17.75C11.0685 17.75 12.9712 17.0313 14.4691 15.8306C14.7923 15.5715 14.8442 15.0995 14.5852 14.7763C14.3261 14.4531 13.8541 14.4011 13.5309 14.6602C12.2895 15.6553 10.7152 16.25 8.99998 16.25C4.99591 16.25 1.74998 13.0041 1.74998 9C1.74998 4.99593 4.99591 1.75 8.99998 1.75C10.7152 1.75 12.2895 2.34472 13.5309 3.33981Z" fill="white"/>
</svg>
