<svg width="40" height="40" viewBox="0 0 40 40" fill="none" xmlns="http://www.w3.org/2000/svg">
<path fill-rule="evenodd" clip-rule="evenodd" d="M3.33334 6.33349V27.5002V30.1668C3.33334 32.376 5.1242 34.1668 7.33334 34.1668H10.1667C12.3758 34.1668 14.1667 32.376 14.1667 30.1668V28.5002C14.1667 27.9479 14.6144 27.5002 15.1667 27.5002H30V6.3335C30 4.67664 28.6569 3.3335 27 3.3335H6.33334C4.67649 3.3335 3.33334 4.67664 3.33334 6.33349ZM15.4167 14.7138C15.3389 14.7722 15.2643 14.8369 15.1935 14.9076L12.5506 17.5506C12.0624 18.0388 11.2709 18.0388 10.7828 17.5506C10.2946 17.0625 10.2946 16.271 10.7828 15.7828L13.4258 13.1399C15.2157 11.35 18.1177 11.35 19.9076 13.1399L22.5506 15.7828C23.0387 16.271 23.0387 17.0625 22.5506 17.5506C22.0624 18.0388 21.2709 18.0388 20.7828 17.5506L18.1398 14.9076C18.069 14.8369 17.9944 14.7722 17.9167 14.7138V21.6667C17.9167 22.3571 17.357 22.9167 16.6667 22.9167C15.9763 22.9167 15.4167 22.3571 15.4167 21.6667V14.7138ZM36.461 31.65C35.7268 34.5339 33.1125 36.6668 30 36.6668H10C13.1125 36.6668 15.7268 34.5339 16.461 31.65C16.6881 30.7579 17.4129 30.0002 18.3333 30.0002H35C35.9205 30.0002 36.6881 30.7579 36.461 31.65Z" fill="#0078D7"/>
</svg>
