<svg width="25" height="25" viewBox="0 0 25 25" fill="none" xmlns="http://www.w3.org/2000/svg">
<path d="M13.5 2.5V6.5C13.5 8.70914 15.2909 10.5 17.5 10.5L21.5 10.5M3.5 6.5L3.5 18.5C3.5 20.7091 5.29086 22.5 7.5 22.5H17.5C19.7091 22.5 21.5 20.7091 21.5 18.5V12.1569C21.5 11.096 21.0786 10.0786 20.3284 9.32843L14.6716 3.67157C13.9214 2.92143 12.904 2.5 11.8431 2.5L7.5 2.5C5.29086 2.5 3.5 4.29086 3.5 6.5Z" stroke="#28303F" stroke-width="1.5" stroke-linejoin="round"/>
<path d="M6.40234 14.1318H7.9873C8.34473 14.1318 8.61719 14.1592 8.80469 14.2139C9.05664 14.2881 9.27246 14.4199 9.45215 14.6094C9.63184 14.7988 9.76855 15.0312 9.8623 15.3066C9.95605 15.5801 10.0029 15.918 10.0029 16.3203C10.0029 16.6738 9.95898 16.9785 9.87109 17.2344C9.76367 17.5469 9.61035 17.7998 9.41113 17.9932C9.26074 18.1396 9.05762 18.2539 8.80176 18.3359C8.61035 18.3965 8.35449 18.4268 8.03418 18.4268H6.40234V14.1318ZM7.26953 14.8584V17.7031H7.91699C8.15918 17.7031 8.33398 17.6895 8.44141 17.6621C8.58203 17.627 8.69824 17.5674 8.79004 17.4834C8.88379 17.3994 8.95996 17.2617 9.01855 17.0703C9.07715 16.877 9.10645 16.6143 9.10645 16.2822C9.10645 15.9502 9.07715 15.6953 9.01855 15.5176C8.95996 15.3398 8.87793 15.2012 8.77246 15.1016C8.66699 15.002 8.5332 14.9346 8.37109 14.8994C8.25 14.8721 8.0127 14.8584 7.65918 14.8584H7.26953Z" fill="#28303F"/>
<path d="M10.5654 16.3057C10.5654 15.8682 10.6309 15.501 10.7617 15.2041C10.8594 14.9854 10.9922 14.7891 11.1602 14.6152C11.3301 14.4414 11.5156 14.3125 11.7168 14.2285C11.9844 14.1152 12.293 14.0586 12.6426 14.0586C13.2754 14.0586 13.7812 14.2549 14.1602 14.6475C14.541 15.04 14.7314 15.5859 14.7314 16.2852C14.7314 16.9785 14.543 17.5215 14.166 17.9141C13.7891 18.3047 13.2852 18.5 12.6543 18.5C12.0156 18.5 11.5078 18.3057 11.1309 17.917C10.7539 17.5264 10.5654 16.9893 10.5654 16.3057ZM11.459 16.2764C11.459 16.7627 11.5713 17.1318 11.7959 17.3838C12.0205 17.6338 12.3057 17.7588 12.6514 17.7588C12.9971 17.7588 13.2803 17.6348 13.501 17.3867C13.7236 17.1367 13.835 16.7627 13.835 16.2646C13.835 15.7725 13.7266 15.4053 13.5098 15.1631C13.2949 14.9209 13.0088 14.7998 12.6514 14.7998C12.2939 14.7998 12.0059 14.9229 11.7871 15.1689C11.5684 15.4131 11.459 15.7822 11.459 16.2764Z" fill="#28303F"/>
<path d="M18.1592 16.8477L19 17.1143C18.8711 17.583 18.6562 17.9316 18.3555 18.1602C18.0566 18.3867 17.6768 18.5 17.2158 18.5C16.6455 18.5 16.1768 18.3057 15.8096 17.917C15.4424 17.5264 15.2588 16.9932 15.2588 16.3174C15.2588 15.6025 15.4434 15.0479 15.8125 14.6533C16.1816 14.2568 16.667 14.0586 17.2686 14.0586C17.7939 14.0586 18.2207 14.2139 18.5488 14.5244C18.7441 14.708 18.8906 14.9717 18.9883 15.3154L18.1299 15.5205C18.0791 15.2979 17.9727 15.1221 17.8105 14.9932C17.6504 14.8643 17.4551 14.7998 17.2246 14.7998C16.9062 14.7998 16.6475 14.9141 16.4482 15.1426C16.251 15.3711 16.1523 15.7412 16.1523 16.2529C16.1523 16.7959 16.25 17.1826 16.4453 17.4131C16.6406 17.6436 16.8945 17.7588 17.207 17.7588C17.4375 17.7588 17.6357 17.6855 17.8018 17.5391C17.9678 17.3926 18.0869 17.1621 18.1592 16.8477Z" fill="#28303F"/>
</svg>
