<svg width="34" height="34" viewBox="0 0 34 34" fill="none" xmlns="http://www.w3.org/2000/svg">
<path fill-rule="evenodd" clip-rule="evenodd" d="M0.333344 3.33349V24.5002V27.1668C0.333344 29.376 2.1242 31.1668 4.33334 31.1668H7.16668C9.37582 31.1668 11.1667 29.376 11.1667 27.1668V25.5002C11.1667 24.9479 11.6144 24.5002 12.1667 24.5002H27V3.3335C27 1.67664 25.6569 0.333496 24 0.333496H3.33334C1.67649 0.333496 0.333344 1.67664 0.333344 3.33349ZM12.4167 11.7138C12.3389 11.7722 12.2643 11.8369 12.1935 11.9076L9.55056 14.5506C9.0624 15.0388 8.27095 15.0388 7.78279 14.5506C7.29464 14.0625 7.29464 13.271 7.78279 12.7828L10.4258 10.1399C12.2157 8.34997 15.1177 8.34997 16.9076 10.1399L19.5506 12.7828C20.0387 13.271 20.0387 14.0625 19.5506 14.5506C19.0624 15.0388 18.2709 15.0388 17.7828 14.5506L15.1398 11.9076C15.069 11.8369 14.9944 11.7722 14.9167 11.7138V18.6667C14.9167 19.3571 14.357 19.9167 13.6667 19.9167C12.9763 19.9167 12.4167 19.3571 12.4167 18.6667V11.7138ZM33.461 28.65C32.7268 31.5339 30.1125 33.6668 27 33.6668H7.00001C10.1125 33.6668 12.7268 31.5339 13.461 28.65C13.6881 27.7579 14.4129 27.0002 15.3333 27.0002H32C32.9205 27.0002 33.6881 27.7579 33.461 28.65Z" fill="#0078D7"/>
</svg>
