<svg width="24" height="24" viewBox="0 0 24 24" fill="none" xmlns="http://www.w3.org/2000/svg">
<path fill-rule="evenodd" clip-rule="evenodd" d="M7.47727 3.19092C7.47727 1.98091 8.45818 1 9.66819 1H14.05C15.26 1 16.2409 1.98091 16.2409 3.19092C16.2409 4.40093 15.26 5.38184 14.05 5.38184H9.66819C8.45818 5.38184 7.47727 4.40093 7.47727 3.19092ZM5.83416 3.19441C3.70192 3.28137 2 5.03745 2 7.19103V18.9093C2 21.1184 3.79086 22.9093 6 22.9093H17.7183C19.9274 22.9093 21.7183 21.1184 21.7183 18.9093V7.19103C21.7183 5.03748 20.0164 3.28142 17.8842 3.19441C17.8823 5.31036 16.1665 7.02509 14.0501 7.02509H9.66826C7.55188 7.02509 5.83601 5.31035 5.83416 3.19441ZM7.47742 8.94217C7.02366 8.94217 6.65582 9.31001 6.65582 9.76376C6.65582 10.2175 7.02366 10.5854 7.47742 10.5854H16.2411C16.6948 10.5854 17.0627 10.2175 17.0627 9.76376C17.0627 9.31001 16.6948 8.94217 16.2411 8.94217H7.47742ZM6.65582 14.1456C6.65582 13.6919 7.02366 13.324 7.47742 13.324H16.2411C16.6948 13.324 17.0627 13.6919 17.0627 14.1456C17.0627 14.5994 16.6948 14.9672 16.2411 14.9672H7.47742C7.02366 14.9672 6.65582 14.5994 6.65582 14.1456ZM7.47742 17.7059C7.02366 17.7059 6.65582 18.0737 6.65582 18.5275C6.65582 18.9812 7.02366 19.3491 7.47742 19.3491H11.8593C12.313 19.3491 12.6808 18.9812 12.6808 18.5275C12.6808 18.0737 12.313 17.7059 11.8593 17.7059H7.47742Z" fill="#0078D7"/>
</svg>
