<svg width="24" height="24" viewBox="0 0 24 24" fill="none" xmlns="http://www.w3.org/2000/svg">
<path d="M6.88878 20.851L6.53539 20.4973L6.52601 20.5067L6.51713 20.5166L6.88878 20.851ZM17.8088 9.94104L18.1622 10.2948L18.516 9.9412L18.1623 9.58748L17.8088 9.94104ZM14.0588 6.19104L14.4123 5.83748L14.0588 5.48393L13.7052 5.83748L14.0588 6.19104ZM3.14878 17.101L2.79523 16.7475L3.14878 17.101ZM20.7087 5.63104L20.3551 5.98459L20.7087 5.63104ZM18.3687 3.29104L18.7222 2.93748L18.3687 3.29104ZM16.9587 3.29104L17.3122 3.64459L16.9587 3.29104ZM15.1287 5.12104L14.7751 4.76748L14.4216 5.12104L14.7751 5.47459L15.1287 5.12104ZM18.8787 8.87104L18.5251 9.22459L18.8787 9.57814L19.2322 9.22459L18.8787 8.87104ZM2.49878 17.461V20.501H3.49878V17.461H2.49878ZM2.49878 20.501C2.49878 21.0572 2.94264 21.501 3.49878 21.501V20.501H2.49878ZM3.49878 21.501H6.53878V20.501H3.49878V21.501ZM6.53878 21.501C6.79239 21.501 7.06411 21.4036 7.26043 21.1855L6.51713 20.5166C6.525 20.5078 6.53264 20.5036 6.53647 20.502C6.53975 20.5006 6.54036 20.501 6.53878 20.501V21.501ZM7.24217 21.2048L18.1622 10.2948L17.4554 9.58732L6.53539 20.4973L7.24217 21.2048ZM18.1623 9.58748L14.4123 5.83748L13.7052 6.54459L17.4552 10.2946L18.1623 9.58748ZM13.7052 5.83748L2.79523 16.7475L3.50233 17.4546L14.4123 6.54459L13.7052 5.83748ZM2.79523 16.7475C2.60253 16.9402 2.49878 17.1869 2.49878 17.461H3.49878C3.49878 17.4559 3.49922 17.4539 3.49916 17.4542C3.49907 17.4546 3.4987 17.4562 3.49782 17.4583C3.49694 17.4604 3.49619 17.4616 3.49627 17.4615C3.4964 17.4613 3.49802 17.4589 3.50233 17.4546L2.79523 16.7475ZM21.0622 7.39459C21.6475 6.80933 21.6475 5.86274 21.0622 5.27748L20.3551 5.98459C20.5498 6.17933 20.5498 6.49274 20.3551 6.68748L21.0622 7.39459ZM21.0622 5.27748L18.7222 2.93748L18.0151 3.64459L20.3551 5.98459L21.0622 5.27748ZM18.7222 2.93748C18.137 2.35222 17.1904 2.35222 16.6051 2.93748L17.3122 3.64459C17.507 3.44985 17.8204 3.44985 18.0151 3.64459L18.7222 2.93748ZM16.6051 2.93748L14.7751 4.76748L15.4822 5.47459L17.3122 3.64459L16.6051 2.93748ZM14.7751 5.47459L18.5251 9.22459L19.2322 8.51748L15.4822 4.76748L14.7751 5.47459ZM19.2322 9.22459L21.0622 7.39459L20.3551 6.68748L18.5251 8.51748L19.2322 9.22459Z" fill="#1A2258"/>
</svg>
