<svg width="20" height="20" viewBox="0 0 20 20" fill="none" xmlns="http://www.w3.org/2000/svg">
<g clip-path="url(#clip0_2164_233)">
<path d="M6.6665 4.99984V4.1665C6.6665 2.78579 7.78579 1.6665 9.1665 1.6665H10.8332C12.2139 1.6665 13.3332 2.78579 13.3332 4.1665V4.99984M1.6665 8.62274C1.6665 8.62274 4.26487 10.3535 8.31456 10.7589M18.3332 8.62274C18.3332 8.62274 15.7348 10.3535 11.6851 10.7589M4.99984 18.3332H14.9998C16.8408 18.3332 18.3332 16.8408 18.3332 14.9998V8.33317C18.3332 6.49222 16.8408 4.99984 14.9998 4.99984H4.99984C3.15889 4.99984 1.6665 6.49222 1.6665 8.33317V14.9998C1.6665 16.8408 3.15889 18.3332 4.99984 18.3332Z" stroke="#0078D7" stroke-width="1.5" stroke-linecap="round"/>
<path d="M11.6668 10.1331V10.9665C11.6668 10.9748 11.6668 10.9748 11.6668 10.9831C11.6668 11.8915 11.6585 12.6331 10.0002 12.6331C8.35016 12.6331 8.3335 11.8998 8.3335 10.9915V10.1331C8.3335 9.2998 8.3335 9.2998 9.16683 9.2998H10.8335C11.6668 9.2998 11.6668 9.2998 11.6668 10.1331Z" stroke="#0078D7" stroke-width="1.5" stroke-miterlimit="10" stroke-linecap="round" stroke-linejoin="round"/>
</g>
<defs>
<clipPath id="clip0_2164_233">
<rect width="20" height="20" fill="white"/>
</clipPath>
</defs>
</svg>
